<svg width="1288" height="378" viewBox="0 0 1288 378" fill="none" xmlns="http://www.w3.org/2000/svg">
<path d="M709.2 280.4C702.133 280.4 695.533 279.533 689.4 277.8C683.267 276.067 677.8 273.667 673 270.6C668.2 267.4 664.2 263.867 661 260C657.933 256.133 655.933 252.067 655 247.8L681.8 239.8C683.533 244.333 686.6 248.267 691 251.6C695.4 254.8 700.933 256.467 707.6 256.6C714.667 256.733 720.4 255.2 724.8 252C729.333 248.8 731.6 244.667 731.6 239.6C731.6 235.2 729.8 231.533 726.2 228.6C722.733 225.533 717.933 223.2 711.8 221.6L693.6 216.8C686.8 215.067 680.8 212.467 675.6 209C670.4 205.4 666.333 201 663.4 195.8C660.467 190.6 659 184.533 659 177.6C659 164.4 663.333 154.133 672 146.8C680.8 139.333 693.2 135.6 709.2 135.6C718.133 135.6 725.933 136.933 732.6 139.6C739.4 142.133 745.067 145.8 749.6 150.6C754.133 155.4 757.6 161.067 760 167.6L733.4 175.8C731.8 171.267 728.867 167.4 724.6 164.2C720.333 161 714.933 159.4 708.4 159.4C701.733 159.4 696.467 160.933 692.6 164C688.867 167.067 687 171.4 687 177C687 181.4 688.467 184.867 691.4 187.4C694.467 189.933 698.6 191.867 703.8 193.2L722.2 197.8C734.2 200.733 743.533 206 750.2 213.6C756.867 221.2 760.2 229.667 760.2 239C760.2 247.267 758.2 254.533 754.2 260.8C750.2 266.933 744.4 271.733 736.8 275.2C729.2 278.667 720 280.4 709.2 280.4ZM849.484 278V219L799.884 138H831.084L863.084 191.6L895.284 138H926.484L876.884 218.8V278H849.484ZM973.177 278V138H1001.78L1070.18 232V138H1097.38V278H1070.18L1000.58 182.2V278H973.177ZM1219.66 280.4C1206.06 280.4 1194 277.333 1183.46 271.2C1172.93 264.933 1164.66 256.4 1158.66 245.6C1152.66 234.667 1149.66 222.133 1149.66 208C1149.66 193.867 1152.66 181.4 1158.66 170.6C1164.66 159.667 1172.86 151.133 1183.26 145C1193.8 138.733 1205.86 135.6 1219.46 135.6C1229.06 135.6 1238 137.333 1246.26 140.8C1254.53 144.133 1261.73 148.867 1267.86 155C1274.13 161 1278.93 167.933 1282.26 175.8L1256.86 185.2C1254.6 180.267 1251.6 176 1247.86 172.4C1244.13 168.667 1239.86 165.8 1235.06 163.8C1230.26 161.667 1225.06 160.6 1219.46 160.6C1211.33 160.6 1204.06 162.667 1197.66 166.8C1191.4 170.8 1186.46 176.333 1182.86 183.4C1179.4 190.467 1177.66 198.667 1177.66 208C1177.66 217.333 1179.46 225.6 1183.06 232.8C1186.66 239.867 1191.66 245.467 1198.06 249.6C1204.46 253.6 1211.8 255.6 1220.06 255.6C1225.8 255.6 1231 254.533 1235.66 252.4C1240.46 250.133 1244.66 247.067 1248.26 243.2C1252 239.333 1255 234.867 1257.26 229.8L1282.66 239C1279.33 247.133 1274.53 254.333 1268.26 260.6C1262.13 266.867 1254.93 271.733 1246.66 275.2C1238.4 278.667 1229.4 280.4 1219.66 280.4Z" fill="#E6F0F2"/>
<path fill-rule="evenodd" clip-rule="evenodd" d="M0 44.3838H555.999V333.85H0V44.3838ZM22.2399 66.6504V311.584H533.759V66.6504H22.2399Z" fill="#E6F0F2"/>
<path fill-rule="evenodd" clip-rule="evenodd" d="M500.269 227.439C500.269 257.999 475.307 278.288 437.549 278.288C400.297 278.288 375.082 257.999 375.082 227.439C375.082 208.545 384.331 193.708 404.478 185.212C388.386 177.223 381.671 163.782 381.671 148.058C381.671 119.4 403.718 100.759 437.549 100.759C471.633 100.759 493.934 119.4 493.934 148.058C493.934 163.782 486.838 177.731 470.113 185.339C490.893 193.835 500.269 208.671 500.269 227.439ZM401.69 225.663C401.69 242.402 415.881 254.829 437.549 254.829C459.849 254.829 473.914 242.402 473.914 225.663C473.914 208.418 459.849 197.512 437.549 197.512C415.881 197.512 401.69 208.418 401.69 225.663ZM437.549 124.345C419.556 124.345 407.899 135.124 407.899 149.199C407.899 164.67 419.556 174.561 437.549 174.561C455.921 174.561 467.705 164.67 467.705 149.199C467.705 135.124 455.921 124.345 437.549 124.345ZM332.851 227.946C332.851 257.111 308.396 278.288 274.818 278.288C246.689 278.288 224.135 263.832 214.252 239.612L236.553 227.312C243.015 243.289 257.079 253.307 274.312 253.307C292.431 253.307 305.608 242.402 305.608 227.565C305.608 211.334 291.29 200.175 270.51 200.175H249.097V176.97H270.51C286.729 176.97 301.554 168.474 301.554 149.96C301.554 135.631 289.263 125.613 271.651 125.613C253.785 125.613 241.367 138.294 236.426 150.341L214.252 138.421C223.755 115.216 245.422 101.013 271.144 101.013C305.101 101.013 328.796 120.922 328.796 149.58C328.796 166.825 319.039 181.662 304.088 187.622C321.447 193.455 332.851 209.305 332.851 227.946ZM174.175 227.946C174.175 257.111 149.72 278.288 116.143 278.288C88.0136 278.288 65.4596 263.832 55.5762 239.612L77.8769 227.312C84.3389 243.289 98.4035 253.307 115.636 253.307C133.755 253.307 146.933 242.402 146.933 227.565C146.933 211.334 132.615 200.175 111.835 200.175H90.4211V176.97H111.835C128.053 176.97 142.878 168.474 142.878 149.96C142.878 135.631 130.587 125.613 112.975 125.613C95.1093 125.613 82.6917 138.294 77.7503 150.341L55.5762 138.421C65.0794 115.216 86.7465 101.013 112.468 101.013C146.426 101.013 170.12 120.922 170.12 149.58C170.12 166.825 160.364 181.662 145.412 187.622C162.771 193.455 174.175 209.305 174.175 227.946Z" fill="#E6F0F2"/>
</svg>
